#!OML:ASF E:\motion texture\Top Level 1\Subject 1\Session 1\male.ASF
:FULLY-SPECIFIED
:DEGREES
375
root -6.02886 18.0568 1.78049 13.9068 -67.7058 -7.8047
lowerback 3.67444 1.24525 1.43733
upperback -0.582679 1.78281 3.4691
thorax -2.72801 0.8786 2.66053
lowerneck -16.2634 -3.26067 -6.13578
upperneck 5.33015 -3.80326 7.08333
head 4.47576 -1.58227 2.87228
rclavicle -2.64384e-014 3.4191e-014
rhumerus -58.9419 -41.2614 -37.9686
rradius 14.4368
rwrist 38.9171
rhand -13.9141 -36.4395
rfingers 7.12502
rthumb 12.2119 -66.0631
lclavicle -2.64384e-014 3.4191e-014
lhumerus -48.1082 28.9213 67.6803
lradius 18.5943
lwrist -41.3187
lhand -9.38707 19.0078
lfingers 7.12502
lthumb 16.5738 48.32
rfemur -32.0902 -12.8191 21.0968
rtibia 48.1296
rfoot -1.71979 -23.8348
rtoes 7.91049
lfemur -11.6936 -5.79994 -16.0078
ltibia 18.2494
lfoot -9.30693 -3.22224
ltoes -3.40753
376
root -6.14828 18.0602 1.80516 13.7919 -67.7428 -7.56415
lowerback 3.66322 1.15489 1.34767
upperback -0.579769 1.65772 3.44408
thorax -2.71584 0.81776 2.69284
lowerneck -16.3108 -3.10779 -6.00949
upperneck 5.2232 -3.61543 7.04512
head 4.43453 -1.49012 2.85653
rclavicle -2.33572e-014 6.20208e-014
rhumerus -60.2444 -40.9085 -36.377
rradius 14.4361
rwrist 39.0287
rhand -13.6914 -36.4039
rfingers 7.12502
rthumb 12.4267 -66.0145
lclavicle -2.33572e-014 6.20208e-014
lhumerus -47.6108 28.4453 68.3199
lradius 18.8174
lwrist -40.8193
lhand -9.24931 18.8851
lfingers 7.12502
lthumb 16.7064 48.1862
rfemur -32.4394 -12.8517 20.9628
rtibia 46.4811
rfoot -2.11485 -23.8616
rtoes 7.81315
lfemur -11.1621 -5.74351 -16.081
ltibia 17.9104
lfoot -9.50519 -3.18706
ltoes -3.50338
377
root -6.26738 18.0622 1.82845 13.6836 -67.7837 -7.32658
lowerback 3.64986 1.06672 1.26091
upperback -0.577762 1.53566 3.41908
thorax -2.70315 0.758358 2.72334
lowerneck -16.3516 -2.95561 -5.88383
upperneck 5.11977 -3.42914 7.00709
head 4.39377 -1.39884 2.84069
rclavicle 1.97791e-014 8.74653e-015
rhumerus -61.3183 -40.4459 -35.0793
rradius 14.4665
rwrist 38.9737
rhand -13.4691 -36.3595
rfingers 7.12502
rthumb 12.641 -65.9569
lclavicle 1.97791e-014 8.74653e-015
lhumerus -47.0821 27.9502 68.9495
lradius 19.0733
lwrist -40.2941
lhand -9.12104 18.7894
lfingers 7.12502
lthumb 16.8299 48.08
rfemur -32.7535 -12.8602 20.83
rtibia 44.7829
rfoot -2.46685 -23.8755
rtoes 7.71757
lfemur -10.6453 -5.68384 -16.146
ltibia 17.5842
lfoot -9.70218 -3.15529
ltoes -3.61514
378
root -6.38624 18.0629 1.8503 13.5779 -67.8286 -7.08869
lowerback 3.63467 0.980674 1.17483
upperback -0.576789 1.41646 3.39379
thorax -2.69034 0.700353 2.75298
lowerneck -16.3844 -2.80368 -5.7569
upperneck 5.02098 -3.24408 6.96749
head 4.35351 -1.30835 2.82396
rclavicle 3.18055e-015 3.10104e-014
rhumerus -62.1823 -39.9004 -34.0548
rradius 14.5216
rwrist 38.7709
rhand -13.2533 -36.307
rfingers 7.12502
rthumb 12.849 -65.8915
lclavicle 3.18055e-015 3.10104e-014
lhumerus -46.5303 27.4526 69.5514
lradius 19.356
lwrist -39.7586
lhand -9.00686 18.7228
lfingers 7.12502
lthumb 16.9398 48.004
rfemur -33.0336 -12.8434 20.6969
rtibia 43.0521
rfoot -2.77597 -23.8805
rtoes 7.62739
lfemur -10.1432 -5.62126 -16.2038
ltibia 17.2731
lfoot -9.89848 -3.12759
ltoes -3.74607
379
root -6.505 18.0624 1.87081 13.4718 -67.8795 -6.84882
lowerback 3.61779 0.897212 1.089
upperback -0.576144 1.3007 3.3677
thorax -2.67678 0.64404 2.78141
lowerneck -16.4103 -2.65222 -5.62958
upperneck 4.92811 -3.06029 6.92634
head 4.31436 -1.21865 2.80645
rclavicle 8.40859e-014 4.69132e-014
rhumerus -62.8595 -39.2985 -33.2742
rradius 14.5959
rwrist 38.4429
rhand -13.0383 -36.2532
rfingers 7.12502
rthumb 13.0563 -65.8245
lclavicle 8.40859e-014 4.69132e-014
lhumerus -45.9577 26.9488 70.1253
lradius 19.6646
lwrist -39.2037
lhand -8.90816 18.681
lfingers 7.12502
lthumb 17.0348 47.9541
rfemur -33.2789 -12.8002 20.5622
rtibia 41.3043
rfoot -3.043 -23.881
rtoes 7.54221
lfemur -9.65311 -5.55614 -16.256
ltibia 16.977
lfoot -10.0941 -3.103
ltoes -3.89641
380
root -6.6237 18.0607 1.88996 13.3619 -67.9382 -6.60335
lowerback 3.59981 0.816487 1.00136
upperback -0.576648 1.18854 3.34052
thorax -2.66373 0.589544 2.80947
lowerneck -16.428 -2.5008 -5.50427
upperneck 4.84134 -2.87694 6.88584
head 4.27616 -1.12926 2.78934
rclavicle -2.82274e-014 2.8625e-014
rhumerus -63.372 -38.6601 -32.7091
rradius 14.6844
rwrist 38.0073
rhand -12.8317 -36.2017
rfingers 7.12502
rthumb 13.2554 -65.7602
lclavicle -2.82274e-014 2.8625e-014
lhumerus -45.3701 26.4431 70.6652
lradius 19.9966
lwrist -38.633
lhand -8.8279 18.6692
lfingers 7.12502
lthumb 17.1121 47.9356
rfemur -33.4931 -12.7295 20.4246
rtibia 39.5574
rfoot -3.27552 -23.8829
rtoes 7.4728
lfemur -9.17587 -5.48863 -16.3045
ltibia 16.698
lfoot -10.2891 -3.08041
ltoes -4.07082
381
root -6.74252 18.0578 1.90777 13.2469 -68.002 -6.35326
lowerback 3.58144 0.73781 0.912606
upperback -0.578034 1.07911 3.31236
thorax -2.65124 0.536415 2.83694
lowerneck -16.4381 -2.3499 -5.37883
upperneck 4.76294 -2.69479 6.84277
head 4.23971 -1.04066 2.77118
rclavicle 4.77083e-015 -1.27222e-014
rhumerus -63.7489 -38.0086 -32.3207
rradius 14.7823
rwrist 37.4904
rhand -12.634 -36.1524
rfingers 7.12502
rthumb 13.4459 -65.6984
lclavicle 4.77083e-015 -1.27222e-014
lhumerus -44.7709 25.9383 71.1674
lradius 20.3501
lwrist -38.0444
lhand -8.76481 18.6896
lfingers 7.12502
lthumb 17.1728 47.9508
rfemur -33.6739 -12.6334 20.2851
rtibia 37.8254
rfoot -3.47898 -23.8895
rtoes 7.41812
lfemur -8.70902 -5.42025 -16.3483
ltibia 16.4366
lfoot -10.4831 -3.06229
ltoes -4.26777
382
root -6.86154 18.0537 1.92425 13.1298 -68.0729 -6.10145
lowerback 3.56166 0.661982 0.822883
upperback -0.580204 0.973464 3.28384
thorax -2.63873 0.485173 2.86432
lowerneck -16.4419 -2.19993 -5.25411
upperneck 4.694 -2.51414 6.79679
head 4.20553 -0.952967 2.75198
rclavicle -1.99779e-014 6.12257e-014
rhumerus -64.0082 -37.3576 -32.0843
rradius 14.8876
rwrist 36.9063
rhand -12.4499 -36.1093
rfingers 7.12502
rthumb 13.6235 -65.6435
lclavicle -1.99779e-014 6.12257e-014
lhumerus -44.1638 25.4417 71.6269
lradius 20.7215
lwrist -37.4471
lhand -8.72188 18.7433
lfingers 7.12502
lthumb 17.2141 48.0008
rfemur -33.8242 -12.5102 20.1454
rtibia 36.1227
rfoot -3.65811 -23.902
rtoes 7.38162
lfemur -8.25312 -5.35083 -16.3862
ltibia 16.1944
lfoot -10.6756 -3.04702
ltoes -4.48734
383
root -6.9809 18.0487 1.93942 13.0105 -68.1511 -5.84824
lowerback 3.54043 0.588776 0.732101
upperback -0.583855 0.871309 3.25479
thorax -2.62687 0.435685 2.89151
lowerneck -16.439 -2.05028 -5.13042
upperneck 4.63604 -2.33416 6.74851
head 4.17401 -0.865737 2.73207
rclavicle -1.5207e-014 -2.46493e-014
rhumerus -64.1758 -36.7252 -31.9628
rradius 14.997
rwrist 36.2844
rhand -12.2806 -36.0701
rfingers 7.12502
rthumb 13.7866 -65.5933
lclavicle -1.5207e-014 -2.46493e-014
lhumerus -43.554 24.9609 72.0373
lradius 21.1081
lwrist -36.8503
lhand -8.69878 18.8282
lfingers 7.12502
lthumb 17.2364 48.0838
rfemur -33.9455 -12.3601 20.0062
rtibia 34.4616
rfoot -3.81333 -23.9208
rtoes 7.36005
lfemur -7.80677 -5.28095 -16.4184
ltibia 15.9706
lfoot -10.866 -3.03437
ltoes -4.73645
384
root -7.10067 18.0427 1.9533 12.8937 -68.237 -5.59855
lowerback 3.5174 0.518637 0.64231
upperback -0.589178 0.773329 3.22561
thorax -2.61569 0.388259 2.9177
lowerneck -16.4302 -1.90107 -5.00792
upperneck 4.58921 -2.15486 6.69704
head 4.1453 -0.778997 2.7112
rclavicle -8.05078e-015 -2.54444e-014
rhumerus -64.2722 -36.1277 -31.9237
rradius 15.1072
rwrist 35.6523
rhand -12.1268 -36.0309
rfingers 7.12502
rthumb 13.9348 -65.544
lclavicle -8.05078e-015 -2.54444e-014
lhumerus -42.9438 24.4991 72.3976
lradius 21.5078
lwrist -36.2584
lhand -8.69921 18.9425
lfingers 7.12502
lthumb 17.236 48.1981
rfemur -34.04 -12.1824 19.8701
rtibia 32.8509
rfoot -3.94283 -23.9498
rtoes 7.36757
lfemur -7.37098 -5.21091 -16.4425
ltibia 15.7672
lfoot -11.0545 -3.0236
ltoes -5.01945
385
root -7.22092 18.0359 1.96591 12.7783 -68.3311 -5.35116
lowerback 3.49244 0.451872 0.553035
upperback -0.596358 0.679919 3.19632
thorax -2.60535 0.343105 2.94319
lowerneck -16.4163 -1.75285 -4.88659
upperneck 4.55446 -1.97688 6.6421
head 4.11987 -0.693046 2.68922
rclavicle -1.47101e-014 -5.56597e-015
rhumerus -64.3171 -35.5813 -31.9338
rradius 15.2144
rwrist 35.0383
rhand -11.9902 -35.9865
rfingers 7.12502
rthumb 14.0664 -65.4904
lclavicle -1.47101e-014 -5.56597e-015
lhumerus -42.3354 24.0553 72.7104
lradius 21.9212
lwrist -35.6709
lhand -8.72252 19.0901
lfingers 7.12502
lthumb 17.2135 48.3477
rfemur -34.1089 -11.9757 19.7352
rtibia 31.2933
rfoot -4.03537 -23.9944
rtoes 7.42168
lfemur -6.94537 -5.14311 -16.4597
ltibia 15.5843
lfoot -11.2399 -3.01285
ltoes -5.3414
386
root -7.34178 18.0285 1.97727 12.6721 -68.4342 -5.11563
lowerback 3.46679 0.388527 0.466705
upperback -0.605833 0.59129 3.16816
thorax -2.59701 0.3003 2.96787
lowerneck -16.3947 -1.60411 -4.76391
upperneck 4.53011 -1.79852 6.58138
head 4.09664 -0.607174 2.66515
rclavicle 2.96189e-014 4.05521e-014
rhumerus -64.3265 -35.0984 -31.9643
rradius 15.3143
rwrist 34.4721
rhand -11.8717 -35.9323
rfingers 7.12502
rthumb 14.1806 -65.4283
lclavicle 2.96189e-014 4.05521e-014
lhumerus -41.733 23.6374 72.9729
lradius 22.3456
lwrist -35.0935
lhand -8.77107 19.2643
lfingers 7.12502
lthumb 17.1668 48.526
rfemur -34.1532 -11.738 19.6054
rtibia 29.7947
rfoot -4.09602 -24.0607
rtoes 7.49549
lfemur -6.52821 -5.07963 -16.4661
ltibia 15.4212
lfoot -11.4186 -2.99902
ltoes -5.69758
387
root -7.46329 18.0205 1.98746 12.5759 -68.547 -4.89247
lowerback 3.43919 0.328977 0.383822
upperback -0.617358 0.50793 3.14154
thorax -2.58977 0.260076 2.99186
lowerneck -16.3702 -1.45624 -4.64414
upperneck 4.51923 -1.62083 6.51686
head 4.07742 -0.521753 2.64023
rclavicle -2.26615e-014 -2.78299e-014
rhumerus -64.3152 -34.694 -31.9864
rradius 15.4043
rwrist 33.9803
rhand -11.768 -35.866
rfingers 7.12502
rthumb 14.2805 -65.3549
lclavicle -2.26615e-014 -2.78299e-014
lhumerus -41.1369 23.2431 73.1913
lradius 22.7819
lwrist -34.5204
lhand -8.84493 19.4721
lfingers 7.12502
lthumb 17.0957 48.7399
rfemur -34.1749 -11.4727 19.4824
rtibia 28.3617
rfoot -4.13229 -24.1493
rtoes 7.57692
lfemur -6.11993 -5.02187 -16.4626
ltibia 15.2791
lfoot -11.5903 -2.98068
ltoes -6.09495
388
root -7.58555 18.0122 1.99653 12.493 -68.6707 -4.686
lowerback 3.41052 0.273582 0.305949
upperback -0.630959 0.4304 3.11685
thorax -2.58417 0.222696 3.01464
lowerneck -16.3421 -1.30853 -4.52648
upperneck 4.52084 -1.44296 6.44808
head 4.06177 -0.43639 2.61427
rclavicle 7.17613e-014 5.1684e-014
rhumerus -64.2844 -34.3695 -31.9969
rradius 15.4842
rwrist 33.5679
rhand -11.679 -35.7896
rfingers 7.12502
rthumb 14.3663 -65.2725
lclavicle 7.17613e-014 5.1684e-014
lhumerus -40.5503 22.8744 73.367
lradius 23.2305
lwrist -33.9502
lhand -8.94367 19.7072
lfingers 7.12502
lthumb 17.0007 48.9832
rfemur -34.1752 -11.1802 19.3686
rtibia 27.0003
rfoot -4.1391 -24.2515
rtoes 7.68722
lfemur -5.71948 -4.97072 -16.4481
ltibia 15.1583
lfoot -11.7536 -2.956
ltoes -6.53301
389
root -7.70867 18.0037 2.00453 12.4253 -68.8057 -4.49821
lowerback 3.38002 0.222448 0.233211
upperback -0.64665 0.358835 3.09462
thorax -2.57985 0.188227 3.03671
lowerneck -16.3095 -1.16074 -4.40836
upperneck 4.53348 -1.26478 6.37184
head 4.04902 -0.351179 2.58586
rclavicle 5.19822e-014 -7.15625e-015
rhumerus -64.2344 -34.1245 -31.9964
rradius 15.555
rwrist 33.231
rhand -11.6112 -35.7098
rfingers 7.12502
rthumb 14.4316 -65.188
lclavicle 5.19822e-014 -7.15625e-015
lhumerus -39.9751 22.5311 73.504
lradius 23.6913
lwrist -33.3771
lhand -9.07123 19.9703
lfingers 7.12502
lthumb 16.8779 49.2569
rfemur -34.1573 -10.8651 19.2674
rtibia 25.7181
rfoot -4.11114 -24.3629
rtoes 7.84982
lfemur -5.32678 -4.92648 -16.4226
ltibia 15.0595
lfoot -11.9067 -2.92453
ltoes -7.01407
